<svg width="41" height="41" viewBox="0 0 41 41" fill="none" xmlns="http://www.w3.org/2000/svg">
<path d="M8.96084e-07 20.5C4.01164e-07 9.17757 9.17757 -4.01164e-07 20.5 -8.96084e-07C31.8224 -1.391e-06 41 9.17757 41 20.5C41 31.8224 31.8211 41 20.5 41C9.17891 41 1.391e-06 31.8224 8.96084e-07 20.5ZM16.5012 31.4354L26.3118 21.625C26.6193 21.3175 26.714 20.8972 26.6449 20.4987C26.7154 20.1015 26.6193 19.68 26.3118 19.3725L16.5012 9.56198C16.0003 9.061 15.1905 9.061 14.6895 9.56198C14.1885 10.063 14.1885 10.874 14.6895 11.3736L23.8133 20.5L14.6895 29.6238C14.1885 30.1248 14.1885 30.9358 14.6895 31.4354C15.1892 31.9365 16.0003 31.9365 16.5012 31.4354Z" fill="#E6E6E6"/>
</svg>
