<svg width="41" height="41" viewBox="0 0 41 41" fill="none" xmlns="http://www.w3.org/2000/svg">
<path d="M41 20.5C41 9.17757 31.8224 -4.01164e-07 20.5 -8.96084e-07C9.17757 -1.391e-06 -4.21586e-06 9.17757 -4.71078e-06 20.5C-5.2057e-06 31.8224 9.1789 41 20.5 41C31.8211 41 41 31.8224 41 20.5ZM24.4988 31.4354L14.6882 21.625C14.3807 21.3175 14.286 20.8972 14.3551 20.4987C14.2846 20.1015 14.3807 19.68 14.6882 19.3725L24.4988 9.56198C24.9997 9.061 25.8095 9.061 26.3105 9.56198C26.8115 10.063 26.8115 10.874 26.3105 11.3736L17.1867 20.5L26.3105 29.6238C26.8115 30.1248 26.8115 30.9358 26.3105 31.4354C25.8108 31.9365 24.9997 31.9365 24.4988 31.4354Z" fill="#E6E6E6"/>
</svg>
