<svg width="34" height="29" viewBox="0 0 34 29" fill="none" xmlns="http://www.w3.org/2000/svg">
<path d="M33.9999 10.3571H28.2265L22.161 0.502685C21.8601 0.0131702 21.2075 -0.146655 20.7032 0.147682C20.2 0.442019 20.0371 1.07818 20.339 1.56874L25.7484 10.3571H8.2516L13.661 1.56867C13.9629 1.07811 13.8 0.441949 13.2968 0.147612C12.7915 -0.146724 12.1409 0.0131005 11.839 0.502616L5.77349 10.3571H0V12.4285H2.30606L5.00535 26.4643C5.28756 27.9339 6.6053 29 8.13893 29H25.8611C27.3946 29 28.7124 27.9339 28.9936 26.4653L31.6938 12.4285H34C33.9999 12.4285 33.9999 10.3571 33.9999 10.3571ZM26.9048 26.084C26.8115 26.5736 26.3725 26.9286 25.861 26.9286H8.13893C7.62738 26.9286 7.18852 26.5736 7.09409 26.0831L4.46741 12.4285H29.5326L26.9048 26.084Z" fill="#313131"/>
</svg>
