<svg width="21" height="29" viewBox="0 0 21 29" fill="none" xmlns="http://www.w3.org/2000/svg">
<path d="M10.3571 0C4.64621 0 0 4.57362 0 10.1953C0 12.0947 0.534486 13.9483 1.54603 15.5565L9.76759 28.5984C9.92508 28.8482 10.2025 29 10.5009 29C10.5032 29 10.5055 29 10.5078 29C10.8088 28.9977 11.0868 28.8412 11.2414 28.587L19.2534 15.4187C20.2091 13.8446 20.7143 12.0383 20.7143 10.1953C20.7143 4.57362 16.0681 0 10.3571 0ZM17.7721 14.5463L10.4879 26.5183L3.01318 14.6612C2.1712 13.3227 1.71468 11.7784 1.71468 10.1953C1.71468 5.51057 5.59804 1.68789 10.3571 1.68789C15.1162 1.68789 18.9939 5.51057 18.9939 10.1953C18.9939 11.7315 18.5674 13.2362 17.7721 14.5463Z" fill="#C84735"/>
<path d="M10.3571 5.09766C7.50168 5.09766 5.17857 7.38446 5.17857 10.1953C5.17857 12.9882 7.46387 15.293 10.3571 15.293C13.2861 15.293 15.5357 12.9575 15.5357 10.1953C15.5357 7.38446 13.2126 5.09766 10.3571 5.09766ZM10.3571 13.6051C8.44355 13.6051 6.89325 12.0739 6.89325 10.1953C6.89325 8.32141 8.4535 6.78555 10.3571 6.78555C12.2608 6.78555 13.8153 8.32141 13.8153 10.1953C13.8153 12.0465 12.3011 13.6051 10.3571 13.6051Z" fill="#C84735"/>
</svg>
