<svg width="137" height="71" viewBox="0 0 137 71" fill="none" xmlns="http://www.w3.org/2000/svg">
<rect width="137" height="71" rx="10" fill="#C84735"/>
<path d="M79.4667 34.418C79.4667 36.3559 74.016 37.927 67.2915 37.927C60.567 37.927 55.1172 36.3559 55.1172 34.418" fill="white"/>
<path d="M79.4667 34.418C79.4667 36.3559 74.016 37.927 67.2915 37.927C60.567 37.927 55.1172 36.3559 55.1172 34.418" stroke="#F8F9FD" stroke-width="4" stroke-miterlimit="10" stroke-linecap="round"/>
<path d="M37.2987 50.6115C37.4158 50.7963 37.4643 51.0056 37.4381 51.2132C37.4121 51.389 37.3319 51.5564 37.205 51.6992C37.0776 51.8402 36.9111 51.9539 36.7196 52.0308C36.5291 52.1113 36.3184 52.1536 36.1045 52.1542C35.8867 52.1529 35.6735 52.1021 35.4884 52.0072C35.2738 51.8959 35.0997 51.7386 34.9845 51.5522C34.0376 50.0011 32.9717 48.5017 31.7935 47.0629L30.58 48.2045V51.0894C30.5817 51.2296 30.5496 51.3686 30.4855 51.4984C30.4215 51.6282 30.3267 51.7461 30.2068 51.8452C30.0869 51.9443 29.9443 52.0227 29.7873 52.0757C29.6304 52.1287 29.4622 52.1553 29.2926 52.1539C29.1241 52.1572 28.9566 52.1315 28.8008 52.0784C28.645 52.0252 28.5042 51.9458 28.3876 51.8452C28.2687 51.7459 28.1751 51.6278 28.1126 51.4979C28.0501 51.3681 28.0199 51.2291 28.0238 51.0894V41.6946C28.02 41.5549 28.0502 41.416 28.1127 41.2861C28.1752 41.1563 28.2687 41.0382 28.3876 40.9388C28.5042 40.8381 28.6449 40.7587 28.8007 40.7055C28.9565 40.6524 29.1241 40.6267 29.2926 40.6302C29.4622 40.6288 29.6304 40.6554 29.7873 40.7084C29.9443 40.7614 30.0869 40.8397 30.2068 40.9388C30.3267 41.038 30.4215 41.1559 30.4855 41.2857C30.5496 41.4154 30.5817 41.5545 30.58 41.6946V45.3973L34.8169 41.0153C34.9277 40.8937 35.0716 40.7954 35.237 40.7285C35.4024 40.6616 35.5846 40.6279 35.7687 40.6302C36.0681 40.634 36.3572 40.7211 36.5895 40.8773C36.7211 40.9628 36.8297 41.07 36.9086 41.1921C36.9874 41.3142 37.0346 41.4485 37.0473 41.5865C37.0648 41.7234 37.0463 41.8619 36.9931 41.9924C36.9399 42.1229 36.8532 42.2424 36.739 42.3426L33.5474 45.4125C34.2319 46.2254 34.8882 47.0637 35.5163 47.9276C36.1444 48.7914 36.7385 49.686 37.2987 50.6115Z" fill="#F8F9FD"/>
<path d="M47.1521 51.26C47.1521 51.5591 47.037 51.7746 46.8071 51.9085C46.5315 52.0525 46.2087 52.1224 45.883 52.1087C45.6533 52.1116 45.4251 52.0775 45.2112 52.0083C45.0375 51.9534 44.8742 51.8781 44.7262 51.7849C44.5808 51.695 44.4547 51.5855 44.3532 51.4611C43.9977 51.7157 43.5711 51.8933 43.1119 51.9778C42.6804 52.0617 42.2389 52.1055 41.7957 52.1087C40.6642 52.1087 39.8215 51.8901 39.2675 51.453C38.7135 51.0158 38.4368 50.4324 38.4375 49.7027V49.5945C38.4375 48.8644 38.7516 48.2908 39.3797 47.8737C40.0078 47.4566 40.9252 47.2483 42.132 47.2488H43.7932V46.9548C43.7932 46.5031 43.6996 46.1554 43.5136 45.914C43.3276 45.6726 42.9476 45.5516 42.3752 45.5516C42.0442 45.5443 41.7139 45.578 41.395 45.6517C41.1535 45.7136 40.9194 45.7937 40.6955 45.891C40.5694 45.9545 40.4283 45.9949 40.2817 46.0095C40.1352 46.024 39.9865 46.0125 39.8458 45.9755C39.6082 45.9093 39.4045 45.7788 39.2678 45.6051C39.1365 45.4329 39.0867 45.2268 39.1279 45.0261C39.1545 44.9099 39.2118 44.7999 39.2957 44.7041C39.3796 44.6083 39.488 44.5289 39.6133 44.4717C40.0413 44.2457 40.5203 44.0935 41.0213 44.0244C41.5352 43.9439 42.0569 43.9024 42.58 43.9005C43.161 43.89 43.7405 43.9551 44.297 44.0935C44.7378 44.2059 45.136 44.4104 45.4531 44.6873C45.7683 44.9806 45.9925 45.3329 46.1064 45.7138C46.2533 46.2004 46.3223 46.7008 46.3116 47.2022V49.7783C46.3116 50.046 46.3579 50.2316 46.4519 50.3339C46.5547 50.4457 46.6701 50.5491 46.7966 50.6429C46.897 50.7154 46.9821 50.8012 47.0485 50.8967C47.121 51.0082 47.1567 51.1335 47.1521 51.26ZM43.7931 48.7458H42.4401C41.8835 48.7458 41.4971 48.828 41.2808 48.9925C41.1746 49.0723 41.0906 49.1701 41.0345 49.2793C40.9785 49.3885 40.9518 49.5064 40.9562 49.625V49.733C40.9471 49.8573 40.9725 49.9817 41.0303 50.0966C41.0882 50.2116 41.1771 50.3141 41.2901 50.3964C41.5124 50.5505 41.8648 50.6276 42.3472 50.6278C42.7284 50.6424 43.1024 50.5377 43.3946 50.3347C43.6613 50.1393 43.7942 49.8359 43.7931 49.4245V48.7458Z" fill="#F8F9FD"/>
<path d="M55.5324 45.2582C55.4513 45.4876 55.2805 45.6883 55.0467 45.8289C54.9173 45.9021 54.7702 45.951 54.6156 45.9723C54.461 45.9936 54.3026 45.9868 54.1515 45.9523C54.056 45.9322 53.9591 45.9168 53.8613 45.9063C53.6909 45.893 53.5197 45.8878 53.3485 45.8908C53.0004 45.8856 52.6565 45.9546 52.35 46.0912C52.1971 46.1667 52.0644 46.2672 51.9601 46.3866C51.8558 46.506 51.7822 46.6418 51.7437 46.7855V51.0737C51.7449 51.2097 51.7134 51.3446 51.651 51.4705C51.5885 51.5963 51.4965 51.7107 51.3801 51.8069C51.2638 51.903 51.1254 51.9792 50.9732 52.0308C50.8209 52.0823 50.6578 52.1084 50.4932 52.1074C50.3257 52.111 50.1591 52.0862 50.0036 52.0345C49.8481 51.9828 49.707 51.9053 49.5892 51.8069C49.4709 51.7118 49.3775 51.5977 49.3148 51.4716C49.2521 51.3455 49.2214 51.21 49.2246 51.0737V46.3385C49.2246 46.0705 49.1686 45.8853 49.0568 45.7828C48.9444 45.6797 48.8143 45.5716 48.6651 45.459C48.5632 45.3953 48.4803 45.3132 48.4226 45.219C48.3559 45.1066 48.3237 44.9824 48.3286 44.8573C48.3286 44.5591 48.4408 44.3429 48.6651 44.2087C48.9368 44.0641 49.2567 43.9941 49.5794 44.0085H49.7756C49.8425 44.0085 49.9089 44.0189 49.9711 44.0393C50.2805 44.0964 50.5708 44.2097 50.8208 44.3709C51.0314 44.5135 51.2058 44.6891 51.3339 44.8877C51.5263 44.6864 51.7564 44.512 52.0157 44.3709C52.2375 44.2512 52.4752 44.1528 52.7241 44.0779C52.9386 44.014 53.161 43.97 53.3872 43.9468C53.5666 43.9282 53.7471 43.918 53.9279 43.9163C54.1511 43.9135 54.3738 43.9341 54.5907 43.9775C54.7653 44.0124 54.9324 44.0695 55.0857 44.147C55.3088 44.2569 55.4723 44.4335 55.5425 44.6402C55.6108 44.8428 55.6073 45.0573 55.5324 45.2582Z" fill="#F8F9FD"/>
<path d="M64.042 47.495C64.0437 47.6187 64.0148 47.7413 63.957 47.8554C63.8992 47.9694 63.8137 48.0725 63.7059 48.1582C63.5992 48.2483 63.4713 48.3195 63.3301 48.3672C63.1889 48.415 63.0373 48.4384 62.8848 48.4359H57.9381C57.7857 48.4384 57.6343 48.415 57.4932 48.3672C57.3521 48.3194 57.2243 48.2483 57.1178 48.1582C57.0099 48.0725 56.9244 47.9694 56.8665 47.8554C56.8086 47.7413 56.7796 47.6187 56.7813 47.495C56.7802 47.3692 56.8093 47.2444 56.8669 47.128C56.9246 47.0115 57.0097 46.9057 57.1172 46.8167C57.2248 46.7276 57.3527 46.6572 57.4935 46.6093C57.6343 46.5615 57.7852 46.5373 57.9374 46.5381H62.8833C63.0356 46.5371 63.1867 46.5612 63.3276 46.609C63.4686 46.6567 63.5966 46.7272 63.7043 46.8162C63.812 46.9053 63.8972 47.0111 63.9549 47.1277C64.0127 47.2442 64.0418 47.3691 64.0405 47.495H64.042Z" fill="#F8F9FD"/>
<path d="M69.7517 51.2591C69.7517 51.5582 69.6303 51.7737 69.3884 51.9076C69.1175 52.0475 68.8021 52.1173 68.4828 52.1078C68.2764 52.1066 68.0715 52.078 67.876 52.023C67.6698 51.9664 67.4771 51.8803 67.3069 51.7687C67.0071 51.5806 66.7642 51.3375 66.5974 51.0587C66.3996 50.7174 66.3037 50.3419 66.3178 49.9637V41.8798C66.3149 41.7428 66.3466 41.6069 66.4108 41.4806C66.4751 41.3544 66.5706 41.2406 66.6911 41.1466C66.8083 41.0493 66.948 40.9726 67.1018 40.9209C67.2557 40.8692 67.4205 40.8437 67.5866 40.8458C67.7511 40.8449 67.9143 40.871 68.0665 40.9227C68.2187 40.9743 68.357 41.0504 68.4734 41.1466C68.5897 41.2428 68.6818 41.3572 68.7442 41.483C68.8066 41.6089 68.8382 41.7437 68.837 41.8798V49.7782C68.837 50.0459 68.8932 50.2311 69.0054 50.3338C69.1267 50.4445 69.2575 50.5478 69.3968 50.6428C69.5114 50.7145 69.6035 50.8079 69.6652 50.9152C69.727 51.0224 69.7566 51.1404 69.7517 51.2591Z" fill="#F8F9FD"/>
<path d="M80.2777 51.2592C80.2777 51.5582 80.1562 51.7737 79.9137 51.9077C79.6433 52.0476 79.3284 52.1173 79.0096 52.1079C78.8033 52.1067 78.5985 52.078 78.4032 52.0231C77.9638 51.8972 77.591 51.6491 77.3486 51.321C77.0099 51.5757 76.6136 51.7723 76.1825 51.8997C75.6759 52.0459 75.1418 52.1164 74.6053 52.108C74.114 52.1185 73.6252 52.0477 73.1676 51.8997C72.7884 51.7729 72.4543 51.5686 72.1965 51.306C71.9406 51.0364 71.7536 50.7267 71.647 50.3955C71.5233 50.0132 71.4635 49.6186 71.4691 49.2229V44.9499C71.4666 44.8125 71.4975 44.6761 71.5601 44.5488C71.6227 44.4214 71.7156 44.3058 71.8333 44.2088C71.9471 44.1094 72.0848 44.0306 72.2375 43.9775C72.3902 43.9245 72.5545 43.8982 72.7202 43.9005C73.0564 43.9016 73.3784 44.0125 73.616 44.2091C73.8537 44.4057 73.9876 44.672 73.9887 44.9499V48.9606C73.9869 49.1239 74.0057 49.2869 74.0446 49.447C74.0754 49.5832 74.1422 49.7122 74.2402 49.8246C74.3421 49.9326 74.4778 50.0154 74.6327 50.0641C74.8449 50.1267 75.0695 50.1555 75.2947 50.149C75.6118 50.1549 75.9258 50.0967 76.2093 49.9793C76.4637 49.8704 76.6816 49.7114 76.844 49.5163V44.9499C76.8453 44.672 76.9795 44.4058 77.2172 44.2092C77.4549 44.0127 77.7769 43.9017 78.1131 43.9005C78.2786 43.8983 78.4429 43.9245 78.5954 43.9776C78.748 44.0307 78.8855 44.1094 78.9993 44.2088C79.117 44.3058 79.21 44.4214 79.2725 44.5487C79.3351 44.6761 79.3661 44.8125 79.3636 44.9499V49.7783C79.3636 50.0459 79.4194 50.2311 79.5312 50.3339C79.6528 50.4442 79.7835 50.5475 79.9223 50.6429C80.0372 50.7144 80.1294 50.8078 80.1914 50.9151C80.2533 51.0223 80.283 51.1404 80.278 51.2592H80.2777Z" fill="#F8F9FD"/>
<path d="M90.223 51.0745C90.2259 51.2115 90.1942 51.3475 90.1299 51.4737C90.0655 51.6 89.97 51.7137 89.8494 51.8077C89.732 51.9048 89.5923 51.9815 89.4384 52.0331C89.2846 52.0847 89.1197 52.1103 88.9537 52.1082C88.7892 52.1093 88.6261 52.0832 88.4738 52.0316C88.3216 51.9801 88.1833 51.9039 88.067 51.8077C87.9507 51.7115 87.8587 51.5972 87.7964 51.4713C87.7341 51.3454 87.7028 51.2105 87.7042 51.0745V47.0636C87.7042 46.9107 87.6849 46.7583 87.6467 46.6087C87.6152 46.4701 87.5485 46.3385 87.4512 46.2227C87.3476 46.1077 87.2092 46.0173 87.05 45.9605C86.8374 45.8875 86.6083 45.8533 86.3783 45.8604C86.0774 45.8543 85.7792 45.9087 85.5094 46.0189C85.2395 46.1292 85.0062 46.292 84.8293 46.4933V51.0745C84.8306 51.2106 84.7991 51.3455 84.7367 51.4714C84.6744 51.5972 84.5823 51.7116 84.4659 51.8078C84.3496 51.904 84.2112 51.9801 84.0589 52.0317C83.9066 52.0833 83.7434 52.1093 83.5789 52.1082C83.4112 52.1118 83.2444 52.0869 83.0888 52.0352C82.9332 51.9836 82.792 51.9061 82.6739 51.8077C82.5558 51.7126 82.4625 51.5984 82.3999 51.4723C82.3372 51.3462 82.3066 51.2108 82.3097 51.0745V46.3389C82.3097 46.0709 82.2538 45.8857 82.142 45.7833C82.0181 45.6699 81.8874 45.5619 81.7502 45.4595C81.6485 45.3956 81.5655 45.3135 81.5073 45.2195C81.4415 45.1069 81.4097 44.9828 81.4145 44.8578C81.4145 44.5596 81.5319 44.3432 81.7691 44.2092C82.0359 44.0685 82.3483 43.9987 82.6645 44.009C82.8706 44.0096 83.0755 44.0357 83.2722 44.0864C83.4788 44.1387 83.6718 44.2222 83.8415 44.3328C84.0086 44.4413 84.1533 44.5715 84.2701 44.7182C84.6173 44.4556 85.023 44.2514 85.4645 44.1169C85.9793 43.9653 86.523 43.8921 87.0694 43.9009C87.5797 43.8877 88.088 43.9613 88.5626 44.1169C88.939 44.2478 89.2718 44.4515 89.5329 44.711C89.7914 44.9801 89.9733 45.2938 90.0653 45.6288C90.1747 46.0184 90.2278 46.4173 90.2236 46.8172L90.223 51.0745Z" fill="#F8F9FD"/>
<path d="M99.2371 50.6115C99.2873 50.7148 99.3115 50.8256 99.3083 50.9369C99.3051 51.0483 99.2745 51.1579 99.2184 51.2592C99.1072 51.433 98.9391 51.5773 98.7333 51.6758C98.3543 51.8449 97.9446 51.9621 97.5202 52.0226C97.1191 52.0783 96.7131 52.1067 96.3064 52.1074C95.697 52.1209 95.0908 52.0316 94.5246 51.8451C94.0574 51.6852 93.6443 51.4338 93.3208 51.1126C93.0012 50.7852 92.7659 50.4072 92.6295 50.0019C92.4766 49.5475 92.4015 49.0775 92.4065 48.6058V47.5256C92.4029 47.0497 92.4879 46.5763 92.6584 46.1218C92.8121 45.7007 93.0623 45.308 93.3953 44.9651C93.7249 44.6312 94.143 44.3646 94.6172 44.1857C95.1542 43.9876 95.7375 43.8901 96.3255 43.9001C96.7415 43.9024 97.1566 43.9334 97.5664 43.9927C97.9904 44.0494 98.3982 44.1698 98.7696 44.348C98.9741 44.4545 99.1414 44.6033 99.2549 44.7797C99.3516 44.983 99.3515 45.2091 99.2547 45.4125C99.1579 45.6158 98.9715 45.7812 98.733 45.8755C98.6141 45.9161 98.4861 45.9357 98.3575 45.9329C98.2288 45.9302 98.1023 45.9053 97.986 45.8597C97.782 45.78 97.5699 45.7154 97.3521 45.6666C97.0952 45.6163 96.8316 45.593 96.5676 45.5974C96.337 45.5872 96.1068 45.6224 95.8959 45.7002C95.6849 45.7779 95.4994 45.896 95.3544 46.0446C95.0679 46.343 94.9249 46.7596 94.9255 47.2943V48.7139C94.9255 49.2379 95.053 49.6518 95.3082 49.9555C95.5633 50.2592 95.952 50.4111 96.4743 50.4113C96.7089 50.4106 96.9432 50.3951 97.175 50.365C97.4561 50.324 97.729 50.2514 97.9863 50.1493C98.1027 50.1035 98.2298 50.079 98.3587 50.0776C98.4877 50.0762 98.6155 50.0979 98.7333 50.1412C98.8546 50.1833 98.9628 50.2475 99.05 50.3289C99.1373 50.4103 99.2012 50.5069 99.2371 50.6115Z" fill="#F8F9FD"/>
<path d="M108.975 51.0743C108.978 51.2106 108.948 51.346 108.885 51.4721C108.822 51.5982 108.729 51.7123 108.611 51.8074C108.493 51.906 108.351 51.9834 108.196 52.0351C108.04 52.0868 107.873 52.1116 107.705 52.108C107.541 52.1088 107.378 52.0826 107.226 52.0309C107.074 51.9792 106.936 51.9031 106.819 51.807C106.703 51.7108 106.611 51.5965 106.549 51.4707C106.486 51.345 106.455 51.2102 106.456 51.0743V47.0634C106.456 46.9109 106.44 46.7588 106.409 46.6085C106.383 46.4699 106.319 46.338 106.223 46.2224C106.118 46.1078 105.98 46.0174 105.821 45.9602C105.608 45.8874 105.379 45.8532 105.149 45.8601C104.832 45.854 104.518 45.9123 104.235 46.0298C103.977 46.1407 103.753 46.2992 103.582 46.4931V51.0743C103.583 51.2103 103.551 51.3452 103.489 51.471C103.426 51.5969 103.334 51.7113 103.218 51.8074C103.102 51.9036 102.963 51.9797 102.811 52.0313C102.659 52.0829 102.496 52.109 102.331 52.108C102.164 52.1115 101.997 52.0867 101.841 52.035C101.686 51.9833 101.545 51.9059 101.427 51.8074C101.309 51.7123 101.216 51.5982 101.153 51.4721C101.09 51.346 101.06 51.2106 101.063 51.0743V41.88C101.06 41.7437 101.09 41.6083 101.153 41.4822C101.216 41.3561 101.309 41.2419 101.427 41.1468C101.545 41.0483 101.686 40.9708 101.841 40.9191C101.997 40.8673 102.164 40.8425 102.331 40.846C102.496 40.8451 102.659 40.8712 102.811 40.9228C102.963 40.9745 103.102 41.0506 103.218 41.1468C103.334 41.243 103.426 41.3573 103.489 41.4832C103.551 41.6091 103.583 41.7439 103.582 41.88V44.4098C103.883 44.239 104.218 44.1113 104.571 44.0318C104.984 43.94 105.412 43.8959 105.84 43.9007C106.347 43.8889 106.852 43.9624 107.323 44.1167C107.701 44.2449 108.035 44.4491 108.294 44.7108C108.547 44.9814 108.726 45.2947 108.817 45.6286C108.926 46.0182 108.979 46.4171 108.975 46.817V51.0743Z" fill="#F8F9FD"/>
<path d="M64.445 24.3825C66.1939 25.4956 66.6954 25.3681 70.7961 29.6446C77.0723 36.1907 80.7602 30.729 77.8084 28.161C75.6878 26.3151 71.4125 25.4411 69.2143 24.6529C68.851 24.5229 67.7297 23.9434 69.1185 23.3459C71.756 22.2116 76.5439 20.6872 79.0635 17.961C82.1277 14.6465 78.2187 9.93506 74.8593 13.4853C73.4934 14.9294 71.0963 17.9673 68.7616 19.519C67.1955 20.5581 65.9104 21.1075 64.9935 21.6766C62.6641 23.1224 63.9543 24.0713 64.445 24.3825Z" fill="#F8F9FD"/>
<path d="M57.4848 30.9774C55.8138 27.5067 57.8432 15.562 57.8162 14.3856C57.7241 10.3839 64.3753 12.1955 62.3367 17.6191C59.9924 23.8554 64.526 27.1526 62.7972 30.9156C61.5999 33.5237 59.4921 32.8147 58.3055 31.9104C57.9545 31.6514 57.6747 31.3332 57.4848 30.9774Z" fill="#F8F9FD"/>
<path d="M46.3565 57.9449L46.0562 58.7394C46.0525 58.7511 46.0437 58.7612 46.0316 58.768C46.0196 58.7747 46.0049 58.7776 45.9904 58.7762L45.4231 58.6629C45.4168 58.6626 45.4108 58.6611 45.4054 58.6584C45.4 58.6558 45.3955 58.6521 45.3923 58.6477C45.389 58.6433 45.3872 58.6383 45.3868 58.6331C45.3864 58.628 45.3876 58.6228 45.3902 58.6181L46.5802 55.6164C46.5824 55.6043 46.5896 55.5932 46.6006 55.5849C46.6116 55.5767 46.6257 55.5719 46.6405 55.5713H47.5086C47.5242 55.571 47.5395 55.5754 47.5515 55.5837C47.5636 55.592 47.5716 55.6036 47.5741 55.6164L48.7645 58.6135C48.7673 58.6184 48.7687 58.6238 48.7685 58.6293C48.7683 58.6347 48.7665 58.6401 48.7633 58.6449C48.7601 58.6496 48.7556 58.6537 48.7502 58.6568C48.7447 58.6599 48.7384 58.6618 48.7319 58.6625L48.1585 58.7758C48.1432 58.7782 48.1273 58.7758 48.1141 58.769C48.1009 58.7622 48.0913 58.7515 48.0872 58.7391L47.7814 57.9445L46.3565 57.9449ZM47.1758 56.3334L47.0721 55.9319L46.9683 56.3334L46.5311 57.471H47.607L47.1758 56.3334Z" fill="#F8F9FD"/>
<path d="M51.4911 58.6767C51.4911 58.6821 51.4898 58.6873 51.4874 58.6923C51.4849 58.6972 51.4813 58.7017 51.4767 58.7055C51.4721 58.7092 51.4667 58.7122 51.4607 58.7143C51.4547 58.7163 51.4483 58.7173 51.4419 58.7173H50.8958C50.8894 58.7173 50.883 58.7163 50.877 58.7143C50.871 58.7122 50.8656 58.7092 50.861 58.7055C50.8564 58.7017 50.8528 58.6972 50.8503 58.6923C50.8479 58.6873 50.8466 58.6821 50.8466 58.6767V56.8848H49.7929V58.6767C49.7929 58.6821 49.7916 58.6873 49.7892 58.6923C49.7867 58.6972 49.7831 58.7017 49.7785 58.7055C49.7739 58.7092 49.7685 58.7122 49.7625 58.7143C49.7565 58.7163 49.7501 58.7173 49.7437 58.7173H49.1976C49.1912 58.7173 49.1848 58.7163 49.1788 58.7143C49.1728 58.7123 49.1674 58.7093 49.1628 58.7055C49.1582 58.7017 49.1546 58.6972 49.1521 58.6923C49.1496 58.6874 49.1484 58.6821 49.1484 58.6767V56.4606C49.1484 56.4552 49.1496 56.4499 49.1521 56.445C49.1546 56.44 49.1582 56.4355 49.1628 56.4318C49.1673 56.428 49.1728 56.425 49.1788 56.423C49.1848 56.4209 49.1912 56.4199 49.1976 56.4199H51.4413C51.4477 56.4199 51.4541 56.421 51.4601 56.423C51.4661 56.425 51.4715 56.428 51.4761 56.4318C51.4807 56.4356 51.4843 56.4401 51.4868 56.445C51.4892 56.45 51.4905 56.4553 51.4905 56.4606L51.4911 58.6767Z" fill="#F8F9FD"/>
<path d="M54.5887 58.6758C54.5887 58.6811 54.5874 58.6864 54.5849 58.6914C54.5825 58.6963 54.5788 58.7008 54.5742 58.7046C54.5696 58.7083 54.5641 58.7113 54.5581 58.7133C54.5521 58.7153 54.5457 58.7164 54.5392 58.7163H53.9935C53.987 58.7164 53.9806 58.7153 53.9746 58.7133C53.9687 58.7113 53.9632 58.7083 53.9586 58.7046C53.9541 58.7008 53.9504 58.6963 53.948 58.6913C53.9455 58.6864 53.9443 58.6811 53.9443 58.6758V56.8838H52.8905V58.6758C52.8906 58.6811 52.8893 58.6864 52.8869 58.6914C52.8844 58.6963 52.8808 58.7008 52.8762 58.7046C52.8716 58.7084 52.8662 58.7113 52.8602 58.7134C52.8542 58.7154 52.8478 58.7164 52.8413 58.7163H52.2953C52.2888 58.7163 52.2824 58.7153 52.2765 58.7133C52.2705 58.7113 52.265 58.7083 52.2605 58.7045C52.2559 58.7007 52.2523 58.6963 52.2498 58.6913C52.2473 58.6864 52.2461 58.6811 52.2461 58.6758V56.4596C52.2461 56.4543 52.2473 56.449 52.2498 56.444C52.2523 56.4391 52.2559 56.4346 52.2605 56.4308C52.265 56.427 52.2705 56.4241 52.2764 56.422C52.2824 56.42 52.2888 56.4189 52.2953 56.4189H54.5398C54.5463 56.4189 54.5527 56.4199 54.5587 56.422C54.5647 56.424 54.5702 56.427 54.5748 56.4308C54.5794 56.4346 54.5831 56.439 54.5855 56.444C54.588 56.449 54.5893 56.4543 54.5893 56.4596L54.5887 58.6758Z" fill="#F8F9FD"/>
<path d="M57.7045 57.6245C57.7031 57.6404 57.6944 57.6553 57.6803 57.6662C57.6662 57.677 57.6476 57.6831 57.6283 57.6831H55.9575C55.9683 58.2608 56.05 58.3283 56.6452 58.3283C56.9129 58.3285 57.1794 58.2982 57.4371 58.2381C57.4487 58.2361 57.4607 58.2378 57.4709 58.2428C57.481 58.2479 57.4884 58.2559 57.4917 58.2653L57.5736 58.6444C57.5767 58.6497 57.5784 58.6555 57.5787 58.6613C57.579 58.6672 57.5778 58.6731 57.5753 58.6786C57.5727 58.6841 57.5688 58.6891 57.5638 58.6933C57.5588 58.6975 57.5528 58.7008 57.5462 58.703C57.23 58.7561 56.908 58.7819 56.5853 58.78C55.6027 58.78 55.2695 58.4956 55.2695 57.5612C55.2695 56.6405 55.6186 56.3516 56.5308 56.3516C57.4208 56.3516 57.7045 56.5953 57.7045 57.6245ZM57.0492 57.2906C57.0389 56.866 56.9784 56.785 56.509 56.785C56.0559 56.785 55.9792 56.866 55.963 57.2906H57.0492Z" fill="#F8F9FD"/>
<path d="M59.4938 56.8838V58.6758C59.4938 58.6811 59.4925 58.6864 59.49 58.6914C59.4876 58.6963 59.4839 58.7008 59.4793 58.7046C59.4747 58.7084 59.4692 58.7114 59.4632 58.7134C59.4572 58.7154 59.4508 58.7164 59.4443 58.7163H58.8983C58.8918 58.7163 58.8854 58.7153 58.8794 58.7133C58.8735 58.7113 58.868 58.7083 58.8634 58.7045C58.8589 58.7007 58.8552 58.6963 58.8528 58.6913C58.8503 58.6864 58.849 58.6811 58.8491 58.6758V56.8838H58.0136C58.0072 56.8838 58.0008 56.8827 57.9949 56.8807C57.9889 56.8787 57.9836 56.8757 57.979 56.8719C57.9745 56.8681 57.9709 56.8637 57.9685 56.8587C57.966 56.8538 57.9648 56.8485 57.9648 56.8432V56.4596C57.9648 56.4543 57.966 56.449 57.9684 56.4441C57.9709 56.4392 57.9744 56.4347 57.979 56.4309C57.9835 56.4271 57.9889 56.4241 57.9948 56.422C58.0008 56.42 58.0072 56.4189 58.0136 56.4189H60.3349C60.3413 56.4189 60.3478 56.4199 60.3538 56.422C60.3597 56.424 60.3652 56.427 60.3698 56.4308C60.3743 56.4346 60.378 56.4391 60.3804 56.444C60.3829 56.449 60.3841 56.4543 60.3841 56.4596V56.8437C60.3841 56.8491 60.3828 56.8544 60.3804 56.8593C60.3779 56.8642 60.3743 56.8687 60.3697 56.8725C60.3651 56.8763 60.3597 56.8792 60.3537 56.8813C60.3477 56.8833 60.3413 56.8843 60.3349 56.8843L59.4938 56.8838Z" fill="#F8F9FD"/>
<path d="M63.1004 58.676C63.1005 58.6813 63.0992 58.6866 63.0968 58.6916C63.0943 58.6965 63.0907 58.701 63.0861 58.7048C63.0815 58.7086 63.0761 58.7115 63.0701 58.7136C63.0641 58.7156 63.0577 58.7166 63.0512 58.7165H62.5106C62.5041 58.7166 62.4977 58.7156 62.4917 58.7135C62.4857 58.7115 62.4803 58.7085 62.4757 58.7048C62.4712 58.701 62.4675 58.6965 62.4651 58.6916C62.4626 58.6866 62.4613 58.6813 62.4613 58.676V57.4888L62.4997 57.1505L62.3631 57.4302L61.4351 58.6808C61.4287 58.6909 61.4193 58.6994 61.4078 58.7057C61.3963 58.7119 61.3831 58.7157 61.3693 58.7165H60.807C60.8005 58.7166 60.7941 58.7156 60.7881 58.7136C60.7821 58.7116 60.7767 58.7086 60.7721 58.7048C60.7675 58.701 60.7639 58.6966 60.7614 58.6916C60.759 58.6867 60.7578 58.6813 60.7578 58.676V56.4599C60.7578 56.4545 60.759 56.4492 60.7614 56.4442C60.7639 56.4393 60.7675 56.4348 60.7721 56.431C60.7767 56.4272 60.7821 56.4242 60.7881 56.4222C60.7941 56.4202 60.8005 56.4191 60.807 56.4192H61.3422C61.3487 56.4192 61.3551 56.4202 61.3611 56.4223C61.367 56.4243 61.3725 56.4273 61.377 56.4311C61.3816 56.4348 61.3852 56.4393 61.3877 56.4443C61.3902 56.4492 61.3914 56.4545 61.3914 56.4599L61.3859 57.665L61.3643 57.9223L61.5008 57.6917L62.4123 56.4596C62.4168 56.448 62.4255 56.4379 62.4373 56.4306C62.4491 56.4233 62.4634 56.4192 62.4781 56.4189H63.0512C63.0577 56.4189 63.0641 56.4199 63.0701 56.422C63.0761 56.424 63.0815 56.427 63.0861 56.4308C63.0907 56.4346 63.0943 56.4391 63.0968 56.444C63.0992 56.449 63.1005 56.4543 63.1004 56.4596V58.676Z" fill="#F8F9FD"/>
<path d="M65.0055 56.8838V58.6757C65.0055 58.6811 65.0043 58.6864 65.0018 58.6913C64.9994 58.6962 64.9958 58.7007 64.9912 58.7045C64.9866 58.7083 64.9812 58.7112 64.9753 58.7133C64.9693 58.7153 64.9629 58.7163 64.9564 58.7163H64.41C64.4036 58.7163 64.3972 58.7153 64.3912 58.7132C64.3853 58.7112 64.3799 58.7082 64.3754 58.7044C64.3708 58.7007 64.3672 58.6962 64.3648 58.6913C64.3624 58.6863 64.3612 58.6811 64.3612 58.6757V56.8838H63.5256C63.5126 56.8838 63.5001 56.8795 63.4909 56.8719C63.4817 56.8643 63.4766 56.854 63.4766 56.8432V56.4596C63.4765 56.4543 63.4778 56.449 63.4802 56.444C63.4827 56.4391 63.4863 56.4346 63.4908 56.4308C63.4954 56.4271 63.5008 56.4241 63.5068 56.422C63.5128 56.42 63.5192 56.4189 63.5256 56.4189H65.8461C65.8526 56.4189 65.859 56.4199 65.865 56.422C65.871 56.424 65.8764 56.427 65.881 56.4308C65.8855 56.4346 65.8891 56.4391 65.8916 56.444C65.894 56.449 65.8953 56.4543 65.8952 56.4596V56.8437C65.8952 56.8491 65.894 56.8543 65.8915 56.8593C65.8891 56.8642 65.8855 56.8687 65.8809 56.8725C65.8764 56.8762 65.8709 56.8792 65.865 56.8813C65.859 56.8833 65.8526 56.8843 65.8461 56.8843L65.0055 56.8838Z" fill="#F8F9FD"/>
<path d="M68.6159 58.6767C68.616 58.6821 68.6148 58.6874 68.6123 58.6923C68.6099 58.6973 68.6063 58.7017 68.6017 58.7055C68.5971 58.7093 68.5917 58.7123 68.5857 58.7143C68.5797 58.7163 68.5733 58.7173 68.5669 58.7173H68.0207C68.0143 58.7173 68.0079 58.7163 68.002 58.7142C67.996 58.7122 67.9906 58.7092 67.9861 58.7054C67.9815 58.7017 67.978 58.6972 67.9755 58.6923C67.9731 58.6873 67.9719 58.6821 67.9719 58.6767V57.7377H66.9182V58.6767C66.9182 58.6821 66.9169 58.6874 66.9145 58.6923C66.912 58.6972 66.9084 58.7017 66.9038 58.7055C66.8992 58.7093 66.8938 58.7122 66.8878 58.7143C66.8818 58.7163 66.8754 58.7173 66.869 58.7173H66.3226C66.3162 58.7174 66.3098 58.7163 66.3038 58.7143C66.2978 58.7123 66.2923 58.7093 66.2877 58.7056C66.2831 58.7018 66.2795 58.6973 66.2771 58.6923C66.2746 58.6874 66.2734 58.6821 66.2734 58.6767V56.4606C66.2734 56.4552 66.2746 56.4499 66.2771 56.445C66.2795 56.44 66.2831 56.4355 66.2877 56.4317C66.2923 56.4279 66.2978 56.4249 66.3037 56.4229C66.3097 56.4209 66.3162 56.4199 66.3226 56.4199H66.869C66.8754 56.4199 66.8818 56.421 66.8878 56.423C66.8938 56.425 66.8992 56.428 66.9038 56.4318C66.9084 56.4356 66.912 56.4401 66.9145 56.445C66.9169 56.45 66.9182 56.4553 66.9182 56.4606V57.2735H67.9719V56.461C67.9719 56.4556 67.9731 56.4504 67.9755 56.4454C67.978 56.4405 67.9815 56.436 67.9861 56.4322C67.9906 56.4284 67.996 56.4254 68.0019 56.4234C68.0079 56.4213 68.0143 56.4203 68.0207 56.4203H68.5669C68.5733 56.4203 68.5797 56.4213 68.5857 56.4233C68.5917 56.4254 68.5971 56.4284 68.6017 56.4321C68.6063 56.4359 68.6099 56.4404 68.6123 56.4454C68.6148 56.4503 68.616 56.4556 68.6159 56.461V58.6767Z" fill="#F8F9FD"/>
<path d="M69.3008 57.5567C69.3008 56.618 69.6553 56.3516 70.6162 56.3516C71.5825 56.3516 71.9377 56.618 71.9377 57.5567C71.9377 58.5001 71.5883 58.78 70.6162 58.78C69.644 58.78 69.3008 58.5004 69.3008 57.5567ZM69.9938 57.566C69.9938 58.2608 70.0647 58.3193 70.6163 58.3193C71.1679 58.3193 71.2388 58.2608 71.2388 57.566C71.2388 56.8842 71.1681 56.8122 70.6163 56.8122C70.0645 56.8122 69.9938 56.8842 69.9938 57.566Z" fill="#F8F9FD"/>
<path d="M74.9823 57.6245C74.9808 57.6404 74.9721 57.6553 74.958 57.6661C74.9438 57.677 74.9252 57.6831 74.9059 57.6831H73.2349C73.2457 58.2608 73.3278 58.3283 73.923 58.3283C74.1907 58.3285 74.4571 58.2981 74.7148 58.2381C74.7263 58.2361 74.7384 58.2378 74.7485 58.2429C74.7586 58.2479 74.766 58.2559 74.7693 58.2653L74.8514 58.6444C74.8545 58.6497 74.8562 58.6555 74.8564 58.6613C74.8567 58.6672 74.8555 58.6731 74.8529 58.6785C74.8504 58.684 74.8465 58.689 74.8415 58.6932C74.8365 58.6974 74.8306 58.7007 74.824 58.7029C74.5077 58.756 74.1857 58.7819 73.863 58.78C72.8801 58.78 72.5469 58.4956 72.5469 57.5612C72.5469 56.6405 72.8964 56.3516 73.8085 56.3516C74.6982 56.3516 74.9823 56.5953 74.9823 57.6245ZM74.327 57.2905C74.3162 56.866 74.2562 56.785 73.7864 56.785C73.3336 56.785 73.257 56.866 73.2404 57.2905H74.327Z" fill="#F8F9FD"/>
<path d="M79.1464 57.8228L78.8352 58.5042C78.8285 58.5155 78.8185 58.5251 78.806 58.5322C78.7936 58.5393 78.7791 58.5437 78.764 58.5448H78.3274C78.3127 58.5445 78.2984 58.5411 78.2859 58.5347C78.2734 58.5284 78.2632 58.5194 78.2563 58.5088L77.6231 57.0688L77.6397 57.7774V58.6758C77.6397 58.6811 77.6385 58.6864 77.636 58.6913C77.6335 58.6962 77.6299 58.7007 77.6254 58.7045C77.6208 58.7082 77.6154 58.7112 77.6094 58.7133C77.6035 58.7153 77.5971 58.7163 77.5906 58.7163H77.0608C77.0543 58.7164 77.0479 58.7153 77.0419 58.7133C77.036 58.7113 77.0305 58.7083 77.026 58.7045C77.0214 58.7008 77.0178 58.6963 77.0153 58.6913C77.0129 58.6864 77.0117 58.6811 77.0117 58.6758V56.4596C77.0117 56.4543 77.0129 56.449 77.0153 56.444C77.0178 56.4391 77.0214 56.4346 77.026 56.4308C77.0305 56.427 77.0359 56.424 77.0419 56.422C77.0479 56.4199 77.0543 56.4189 77.0608 56.4189H77.8522C77.8676 56.4191 77.8826 56.4231 77.8953 56.4303C77.908 56.4376 77.9177 56.4478 77.9234 56.4596L78.2837 57.295L78.5505 57.9671L78.8181 57.295L79.1839 56.4596C79.1883 56.448 79.197 56.4379 79.2088 56.4306C79.2205 56.4233 79.2347 56.4192 79.2494 56.4189H80.0349C80.0414 56.4189 80.0478 56.42 80.0538 56.422C80.0598 56.4241 80.0652 56.427 80.0698 56.4308C80.0743 56.4346 80.078 56.4391 80.0804 56.444C80.0829 56.449 80.0842 56.4543 80.0841 56.4596V58.6758C80.0842 58.6811 80.0829 58.6864 80.0804 58.6913C80.078 58.6963 80.0743 58.7007 80.0698 58.7045C80.0652 58.7083 80.0598 58.7113 80.0538 58.7133C80.0478 58.7153 80.0414 58.7163 80.0349 58.7163H79.5002C79.4937 58.7164 79.4873 58.7154 79.4813 58.7134C79.4753 58.7113 79.4698 58.7084 79.4653 58.7046C79.4607 58.7008 79.4571 58.6963 79.4546 58.6914C79.4522 58.6864 79.4509 58.6811 79.451 58.6758V57.7774L79.4726 57.0688L79.1464 57.8228Z" fill="#F8F9FD"/>
<path d="M83.2046 57.6245C83.2032 57.6405 83.1945 57.6554 83.1803 57.6663C83.166 57.6771 83.1474 57.6831 83.128 57.6831H81.4577C81.4685 58.2608 81.5502 58.3283 82.1454 58.3283C82.413 58.3285 82.6795 58.2981 82.9371 58.2381C82.9487 58.2361 82.9608 58.2378 82.9709 58.2428C82.981 58.2479 82.9885 58.2559 82.9918 58.2653L83.0735 58.6444C83.0766 58.6497 83.0783 58.6554 83.0786 58.6613C83.0789 58.6672 83.0778 58.673 83.0752 58.6785C83.0727 58.684 83.0688 58.689 83.0639 58.6932C83.0589 58.6974 83.0529 58.7007 83.0464 58.7029C82.7301 58.756 82.408 58.7818 82.0853 58.78C81.1024 58.78 80.7695 58.4956 80.7695 57.5612C80.7695 56.6405 81.119 56.3516 82.0308 56.3516C82.921 56.3516 83.2046 56.5952 83.2046 57.6245ZM82.5494 57.2905C82.5386 56.866 82.4783 56.785 82.0087 56.785C81.5556 56.785 81.4793 56.866 81.463 57.2905H82.5494Z" fill="#F8F9FD"/>
<path d="M85.0686 58.306C85.2946 58.3051 85.5191 58.2762 85.7347 58.2202C85.7462 58.218 85.7584 58.2195 85.7686 58.2246C85.7789 58.2297 85.7863 58.2378 85.7894 58.2473L85.8716 58.6489C85.8821 58.6761 85.8716 58.7029 85.8439 58.7077C85.5641 58.7572 85.2786 58.7815 84.9924 58.78C84.0587 58.78 83.7695 58.4956 83.7695 57.5612C83.7695 56.6315 84.0585 56.3516 84.9924 56.3516C85.2785 56.3523 85.5637 56.3766 85.8439 56.4241C85.8505 56.4262 85.8565 56.4295 85.8616 56.4337C85.8666 56.4378 85.8705 56.4428 85.8731 56.4483C85.8757 56.4537 85.8769 56.4596 85.8767 56.4655C85.8764 56.4713 85.8747 56.4771 85.8716 56.4824L85.7894 56.8842C85.7863 56.8936 85.7789 56.9018 85.7686 56.9068C85.7584 56.9118 85.7462 56.9134 85.7347 56.9111C85.5188 56.8568 85.2943 56.8295 85.0686 56.8299C84.5663 56.8299 84.4684 56.9111 84.4684 57.566C84.4678 58.2426 84.5657 58.306 85.0686 58.306Z" fill="#F8F9FD"/>
<path d="M87.5133 56.8838V58.6757C87.5133 58.6811 87.5121 58.6864 87.5097 58.6913C87.5072 58.6962 87.5036 58.7007 87.499 58.7045C87.4945 58.7083 87.489 58.7112 87.4831 58.7133C87.4771 58.7153 87.4707 58.7163 87.4643 58.7163H86.9181C86.9116 58.7163 86.9052 58.7153 86.8993 58.7133C86.8933 58.7113 86.8878 58.7083 86.8833 58.7045C86.8787 58.7008 86.8751 58.6963 86.8727 58.6913C86.8702 58.6864 86.869 58.6811 86.869 58.6757V56.8838H86.0334C86.0204 56.8838 86.0079 56.8795 85.9987 56.8719C85.9895 56.8643 85.9844 56.854 85.9844 56.8432V56.4596C85.9843 56.4543 85.9856 56.449 85.988 56.444C85.9905 56.4391 85.9941 56.4346 85.9986 56.4308C86.0032 56.4271 86.0086 56.4241 86.0146 56.422C86.0206 56.42 86.027 56.4189 86.0334 56.4189H88.354C88.3604 56.4189 88.3668 56.4199 88.3728 56.422C88.3788 56.424 88.3843 56.427 88.3888 56.4308C88.3934 56.4346 88.397 56.4391 88.3995 56.444C88.402 56.449 88.4032 56.4543 88.4032 56.4596V56.8437C88.4032 56.8491 88.4019 56.8543 88.3995 56.8593C88.397 56.8642 88.3934 56.8687 88.3888 56.8725C88.3842 56.8762 88.3788 56.8792 88.3728 56.8813C88.3668 56.8833 88.3604 56.8843 88.354 56.8843L87.5133 56.8838Z" fill="#F8F9FD"/>
<path d="M88.7109 57.5567C88.7109 56.618 89.0667 56.3516 90.0268 56.3516C90.9935 56.3516 91.3481 56.618 91.3481 57.5567C91.3481 58.5001 90.9986 58.78 90.0268 58.78C89.0549 58.78 88.7109 58.5004 88.7109 57.5567ZM89.4046 57.566C89.4046 58.2608 89.4757 58.3193 90.0271 58.3193C90.5784 58.3193 90.6495 58.2608 90.6495 57.566C90.6495 56.8842 90.5791 56.8122 90.0271 56.8122C89.475 56.8122 89.4046 56.8842 89.4046 57.566Z" fill="#F8F9FD"/>
<path d="M67.2908 35.6938C62.4327 35.6938 57.5745 35.2125 53.8758 34.2509C46.4789 32.3273 46.4789 29.198 53.8758 27.2743C54.4926 27.1391 55.1413 27.1391 55.7581 27.2743C56.278 27.4091 56.278 27.6286 55.7581 27.7644C49.3998 29.4184 49.3998 32.1084 55.7581 33.7619C58.8385 34.5626 62.9341 35.004 67.2902 35.004C71.6463 35.004 75.7421 34.5629 78.8229 33.7619C85.1812 32.1079 85.1812 29.4179 78.8229 27.7644C78.3031 27.6296 78.3031 27.41 78.8229 27.2743C79.4397 27.139 80.0884 27.139 80.7052 27.2743C88.1021 29.1978 88.1021 32.3272 80.7052 34.2509C77.0072 35.2125 72.1499 35.6938 67.2908 35.6938Z" fill="#F8F9FD"/>
</svg>
