<svg width="29" height="29" viewBox="0 0 29 29" fill="none" xmlns="http://www.w3.org/2000/svg">
<path d="M12.771 0C5.72925 0 0 5.72926 0 12.771C0 19.8131 5.72925 25.542 12.771 25.542C19.8131 25.542 25.542 19.8131 25.542 12.771C25.542 5.72926 19.8131 0 12.771 0ZM12.771 23.1843C7.02915 23.1843 2.35772 18.5129 2.35772 12.771C2.35772 7.02922 7.02915 2.35772 12.771 2.35772C18.5128 2.35772 23.1842 7.02916 23.1842 12.771C23.1842 18.5128 18.5128 23.1843 12.771 23.1843Z" fill="#313131"/>
<path d="M28.6546 26.9877L21.8958 20.2289C21.4352 19.7683 20.6894 19.7683 20.2288 20.2289C19.7683 20.689 19.7683 21.4356 20.2288 21.8958L26.9877 28.6546C27.2179 28.8849 27.5193 29 27.8211 29C28.1225 29 28.4243 28.8849 28.6546 28.6546C29.1151 28.1945 29.1151 27.4478 28.6546 26.9877Z" fill="#313131"/>
</svg>
